# xmcd
#
# Track frame offsets:
#       183
#       15195
#       34233
#       57745
#       75533
#       91918
#       113180
#       129133
#       148945
#       164133
#       183670
#
# Disc length: 2656 seconds
#
# Revision: 0
# Processed by: cddbd v1.4PL0 Copyright (c) Steve Scherf et al.
# Submitted via: WhereIsIt 3.26
#
DISCID=930a5e0b
DTITLE=Ana Belen - Como Una Novia
DYEAR=1900
DGENRE=
TTITLE0=Camino De Vuelta
TTITLE1=Sin Preguntar y Deprisa
TTITLE2=Como Una Novia
TTITLE3=El Fantasma Del Estudio 1
TTITLE4=Sola En El Lugar
TTITLE5=Margaritas A Los Cerdos
TTITLE6=Debajito De Un Arbol
TTITLE7=Destino Incierto
TTITLE8=La Tierra Se Mueve
TTITLE9=Los Restos Del Naufragio
TTITLE10=Hombres
EXTD=
EXTT0=
EXTT1=
EXTT2=
EXTT3=
EXTT4=
EXTT5=
EXTT6=
EXTT7=
EXTT8=
EXTT9=
EXTT10=
PLAYORDER=
